<svg xmlns="http://www.w3.org/2000/svg" style="display:none">
  <defs>
    <symbol id="icon-moon" viewBox="0 0 24 24" fill="none" stroke="currentColor" stroke-width="2" stroke-linecap="round" stroke-linejoin="round">
      <path d="M21 12.79A9 9 0 1 1 11.21 3 7 7 0 0 0 21 12.79z"/>
    </symbol>
    <symbol id="icon-sun" viewBox="0 0 24 24" fill="none" stroke="currentColor" stroke-width="2" stroke-linecap="round" stroke-linejoin="round">
      <circle cx="12" cy="12" r="5"/>
      <path d="M12 1v2M12 21v2M4.22 4.22l1.42 1.42M18.36 18.36l1.42 1.42M1 12h2M21 12h2M4.22 19.78l1.42-1.42M18.36 5.64l1.42-1.42"/>
    </symbol>
    <symbol id="icon-monitor" viewBox="0 0 24 24" fill="none" stroke="currentColor" stroke-width="2" stroke-linecap="round" stroke-linejoin="round">
      <rect x="2" y="3" width="20" height="14" rx="2"/>
      <path d="M8 21h8M12 17v4"/>
    </symbol>
    <symbol id="icon-mouse" viewBox="0 0 24 24" fill="none" stroke="currentColor" stroke-width="2" stroke-linecap="round" stroke-linejoin="round">
      <rect x="6" y="3" width="12" height="18" rx="6"/>
      <path d="M12 7v4"/>
    </symbol>
    <symbol id="icon-star" viewBox="0 0 24 24" fill="none" stroke="currentColor" stroke-width="2" stroke-linecap="round" stroke-linejoin="round">
      <polygon points="12 2 15.09 8.26 22 9.27 17 14.14 18.18 21.02 12 17.77 5.82 21.02 7 14.14 2 9.27 8.91 8.26 12 2"/>
    </symbol>
    <symbol id="icon-download" viewBox="0 0 24 24" fill="none" stroke="currentColor" stroke-width="2" stroke-linecap="round" stroke-linejoin="round">
      <path d="M21 15v4a2 2 0 0 1-2 2H5a2 2 0 0 1-2-2v-4"/>
      <path d="m7 10 5 5 5-5"/>
      <path d="M12 15V3"/>
    </symbol>
    <symbol id="icon-book" viewBox="0 0 24 24" fill="none" stroke="currentColor" stroke-width="2" stroke-linecap="round" stroke-linejoin="round">
      <path d="M4 19.5A2.5 2.5 0 0 1 6.5 17H20"/>
      <path d="M6.5 2H20v20H6.5A2.5 2.5 0 0 1 4 19.5v-15A2.5 2.5 0 0 1 6.5 2z"/>
    </symbol>
    <symbol id="icon-chevron-down" viewBox="0 0 24 24" fill="none" stroke="currentColor" stroke-width="2" stroke-linecap="round" stroke-linejoin="round">
      <path d="m6 9 6 6 6-6"/>
    </symbol>
    <symbol id="icon-file-code" viewBox="0 0 24 24" fill="none" stroke="currentColor" stroke-width="2" stroke-linecap="round" stroke-linejoin="round">
      <path d="M14 2H6a2 2 0 0 0-2 2v16a2 2 0 0 0 2 2h12a2 2 0 0 0 2-2V8z"/>
      <path d="M14 2v6h6"/>
      <path d="m9 13-2 2 2 2"/>
      <path d="m15 13 2 2-2 2"/>
    </symbol>
    <symbol id="icon-shield" viewBox="0 0 24 24" fill="none" stroke="currentColor" stroke-width="2" stroke-linecap="round" stroke-linejoin="round">
      <path d="M12 22s8-4 8-10V5l-8-3-8 3v7c0 6 8 10 8 10z"/>
    </symbol>
    <symbol id="icon-zap" viewBox="0 0 24 24" fill="none" stroke="currentColor" stroke-width="2" stroke-linecap="round" stroke-linejoin="round">
      <path d="M13 2 3 14h9l-1 8 10-12h-9l1-8z"/>
    </symbol>
    <symbol id="icon-layers" viewBox="0 0 24 24" fill="none" stroke="currentColor" stroke-width="2" stroke-linecap="round" stroke-linejoin="round">
      <path d="m12 2 10 5-10 5L2 7l10-5z"/>
      <path d="m2 12 10 5 10-5"/>
      <path d="m2 17 10 5 10-5"/>
    </symbol>
    <symbol id="icon-cloud" viewBox="0 0 24 24" fill="none" stroke="currentColor" stroke-width="2" stroke-linecap="round" stroke-linejoin="round">
      <path d="M18 10h-1.26A8 8 0 1 0 9 20h9a5 5 0 0 0 0-10z"/>
    </symbol>
    <symbol id="icon-gauge" viewBox="0 0 24 24" fill="none" stroke="currentColor" stroke-width="2" stroke-linecap="round" stroke-linejoin="round">
      <path d="m12 14 4-4"/>
      <path d="M3.34 19a10 10 0 1 1 17.32 0"/>
    </symbol>
    <symbol id="icon-plug" viewBox="0 0 24 24" fill="none" stroke="currentColor" stroke-width="2" stroke-linecap="round" stroke-linejoin="round">
      <path d="M12 22v-5"/>
      <path d="M9 8V2"/>
      <path d="M15 8V2"/>
      <path d="M18 8v5a4 4 0 0 1-4 4h-4a4 4 0 0 1-4-4V8z"/>
    </symbol>
    <symbol id="icon-branch" viewBox="0 0 24 24" fill="none" stroke="currentColor" stroke-width="2" stroke-linecap="round" stroke-linejoin="round">
      <path d="M6 3v12"/>
      <circle cx="18" cy="6" r="3"/>
      <circle cx="6" cy="18" r="3"/>
      <path d="M18 9a9 9 0 0 1-9 9"/>
    </symbol>
    <symbol id="icon-tag" viewBox="0 0 24 24" fill="none" stroke="currentColor" stroke-width="2" stroke-linecap="round" stroke-linejoin="round">
      <path d="M20.59 13.41l-7.17 7.17a2 2 0 0 1-2.83 0L2 12V2h10l8.59 8.59a2 2 0 0 1 0 2.82z"/>
      <path d="M7 7h.01"/>
    </symbol>
    <symbol id="icon-users" viewBox="0 0 24 24" fill="none" stroke="currentColor" stroke-width="2" stroke-linecap="round" stroke-linejoin="round">
      <path d="M17 21v-2a4 4 0 0 0-4-4H5a4 4 0 0 0-4 4v2"/>
      <circle cx="9" cy="7" r="4"/>
      <path d="M23 21v-2a4 4 0 0 0-3-3.87"/>
      <path d="M16 3.13a4 4 0 0 1 0 7.75"/>
    </symbol>
    <symbol id="icon-cubes" viewBox="0 0 24 24" fill="none" stroke="currentColor" stroke-width="2" stroke-linecap="round" stroke-linejoin="round">
      <path d="M21 16V8a2 2 0 0 0-1-1.73l-7-4a2 2 0 0 0-2 0l-7 4A2 2 0 0 0 3 8v8a2 2 0 0 0 1 1.73l7 4a2 2 0 0 0 2 0l7-4A2 2 0 0 0 21 16z"/>
      <path d="M3.27 6.96 12 12.01l8.73-5.05"/>
      <path d="M12 22.08V12"/>
    </symbol>
    <symbol id="icon-github" viewBox="0 0 24 24" fill="none" stroke="currentColor" stroke-width="2" stroke-linecap="round" stroke-linejoin="round">
      <path d="M9 19c-5 1.5-5-2.5-7-3m14 6v-3.87a3.37 3.37 0 0 0-.94-2.61c3.14-.35 6.44-1.54 6.44-7A5.44 5.44 0 0 0 20 4.77 5.07 5.07 0 0 0 19.91 1S18.73.65 16 2.48a13.38 13.38 0 0 0-7 0C6.27.65 5.09 1 5.09 1A5.07 5.07 0 0 0 5 4.77a5.44 5.44 0 0 0-1.5 3.78c0 5.42 3.3 6.61 6.44 7A3.37 3.37 0 0 0 9 18.13V22"/>
    </symbol>
    <symbol id="icon-rocket" viewBox="0 0 24 24" fill="none" stroke="currentColor" stroke-width="2" stroke-linecap="round" stroke-linejoin="round">
      <path d="M4.5 16.5c-1.5 1.26-2 5-2 5s3.74-.5 5-2c.71-.84.7-2.13-.09-2.91a2.18 2.18 0 0 0-2.91-.09z"/>
      <path d="m12 15-3-3a22 22 0 0 1 2-3.95A12.88 12.88 0 0 1 22 2c0 2.72-.78 7.5-6 11a22.35 22.35 0 0 1-4 2z"/>
      <path d="M9 12H4s.55-3.03 2-4c1.62-1.08 5 0 5 0"/>
      <path d="M12 15v5s3.03-.55 4-2c1.08-1.62 0-5 0-5"/>
    </symbol>
  </defs>
</svg>
